<?xml version="1.0" standalone="no"?>
<!DOCTYPE svg PUBLIC "-//W3C//DTD SVG 20010904//EN"
 "http://www.w3.org/TR/2001/REC-SVG-20010904/DTD/svg10.dtd">
<svg version="1.0" xmlns="http://www.w3.org/2000/svg"
 width="218.000000pt" height="231.000000pt" viewBox="0 0 218.000000 231.000000"
 preserveAspectRatio="xMidYMid meet">

<g transform="translate(0.000000,231.000000) scale(0.100000,-0.100000)"
fill="#000000" stroke="none">
<path d="M405 2101 c-49 -21 -60 -48 -63 -154 -5 -120 7 -168 48 -197 27 -19
30 -27 30 -74 0 -51 -3 -56 -102 -187 -56 -74 -107 -150 -114 -169 -17 -45
-19 -765 -4 -822 6 -21 22 -51 37 -68 50 -60 52 -60 406 -60 l325 0 35 -43
c19 -23 59 -56 88 -72 47 -26 64 -29 134 -30 93 0 69 -10 390 174 243 140 291
176 327 250 31 66 31 179 -1 241 -47 91 -115 142 -215 161 -76 14 -133 -2
-248 -66 -53 -30 -99 -55 -102 -55 -3 0 -6 78 -6 173 0 94 -4 188 -10 207 -5
19 -57 98 -115 175 -103 138 -105 141 -105 196 0 50 3 57 25 67 45 21 57 62
53 188 -3 109 -4 115 -31 141 l-27 28 -368 2 c-202 1 -376 -2 -387 -6z m741
-55 c16 -12 19 -28 21 -112 2 -73 -1 -104 -13 -121 l-14 -23 -359 0 c-287 0
-361 3 -370 13 -6 8 -11 59 -12 122 -1 94 2 111 17 122 27 20 702 19 730 -1z
m-78 -312 c18 -5 22 -13 22 -50 l0 -44 -182 -2 c-181 -3 -183 -3 -186 -25 l-3
-23 179 0 c99 0 187 -3 196 -6 9 -3 54 -56 99 -118 107 -143 119 -161 115
-182 -3 -15 -43 -16 -518 -15 -283 1 -521 1 -527 1 -31 0 -5 49 97 186 l110
148 0 61 c0 34 3 65 7 68 8 9 560 9 591 1z m244 -687 c0 -87 -1 -159 -3 -161
-2 -1 -62 -36 -132 -76 -92 -53 -141 -87 -170 -122 l-42 -48 -357 0 -358 0 0
285 0 285 531 -2 531 -3 0 -158z m447 -58 c25 -9 30 -14 19 -21 -10 -7 -8 -8
5 -4 24 8 60 -17 90 -62 47 -72 52 -164 13 -241 -29 -57 -54 -77 -185 -151
l-94 -54 -19 24 c-10 13 -16 30 -14 37 3 8 2 11 -4 8 -12 -8 -43 52 -34 67 4
6 3 8 -3 5 -13 -8 -117 169 -107 184 4 8 3 9 -4 5 -7 -4 -19 9 -32 33 l-20 40
22 15 c56 34 171 98 201 111 39 17 122 19 166 4z m-324 -351 c61 -105 111
-196 113 -203 4 -17 -220 -143 -277 -156 -53 -12 -100 -5 -151 21 -47 24 -94
75 -85 91 5 7 4 10 -2 6 -13 -8 -32 34 -40 88 -7 53 17 129 55 174 22 26 253
171 272 170 3 0 55 -86 115 -191z m-492 -135 l2 -83 -305 0 c-289 0 -307 1
-338 20 -22 14 -32 26 -28 36 3 8 2 13 -3 10 -12 -8 -21 19 -21 65 l0 39 345
-2 346 -3 2 -82z"/>
<path d="M417 2033 c-4 -3 -6 -54 -5 -112 l2 -106 3 97 c3 63 8 100 17 107 8
7 130 12 362 14 l349 2 -361 3 c-198 1 -364 -1 -367 -5z"/>
<path d="M480 1658 l0 -61 -98 -131 c-119 -158 -136 -186 -112 -186 6 0 10 5
10 10 0 6 47 73 105 150 l105 139 0 65 0 66 298 3 297 2 -302 3 -303 2 0 -62z"/>
<path d="M577 1634 c-4 -4 -7 -16 -7 -26 0 -14 6 -19 23 -16 14 2 22 10 22 23
0 20 -25 32 -38 19z"/>
<path d="M627 1600 c-3 -13 -14 -20 -28 -20 -17 0 -20 -3 -12 -11 18 -18 53
-1 53 27 0 29 -6 31 -13 4z"/>
<path d="M833 1563 c54 -2 139 -2 190 0 51 1 7 3 -98 3 -104 0 -146 -2 -92 -3z"/>
<path d="M262 923 l3 -278 2 272 3 273 518 3 517 2 -522 3 -523 2 2 -277z"/>
<path d="M756 1074 c-3 -9 -6 -42 -6 -75 l0 -59 -69 0 c-47 0 -71 -4 -74 -12
-10 -30 6 -38 74 -38 l69 0 0 -59 c0 -72 6 -91 30 -91 24 0 30 19 30 91 l0 59
69 0 c72 0 86 6 75 34 -5 13 -21 16 -75 16 l-69 0 0 63 c0 61 -11 87 -36 87
-6 0 -15 -7 -18 -16z"/>
<path d="M823 1010 c0 -36 2 -50 4 -32 2 17 2 47 0 65 -2 17 -4 3 -4 -33z"/>
<path d="M962 900 c-10 -17 -23 -20 -77 -20 l-64 0 -3 -67 c-3 -59 -6 -69 -26
-79 -16 -8 -19 -13 -10 -17 7 -2 21 0 31 5 13 7 17 22 17 73 l0 65 64 0 c66 0
91 13 84 45 -2 13 -5 12 -16 -5z"/>
<path d="M630 870 c20 -13 110 -13 110 0 0 6 -27 10 -62 10 -45 0 -59 -3 -48
-10z"/>
<path d="M1610 980 c-26 -8 -198 -105 -214 -121 -28 -27 11 -11 101 41 122 70
162 84 221 77 27 -3 39 -1 31 4 -17 11 -104 10 -139 -1z"/>
<path d="M1295 806 c-11 -7 -63 -38 -115 -69 -52 -30 -105 -66 -116 -79 -47
-51 -69 -128 -55 -188 8 -32 9 -31 10 23 2 109 42 158 202 247 60 34 107 65
104 71 -7 11 -5 11 -30 -5z"/>
<path d="M262 538 l1 -43 4 38 4 37 326 0 c179 -1 328 1 331 4 3 4 -146 6
-331 6 l-337 0 2 -42z"/>
<path d="M1230 1920 c0 -117 -9 -150 -47 -175 -20 -14 -23 -23 -21 -73 l2 -57
3 49 c4 40 10 54 39 81 l34 32 0 127 c0 69 -2 126 -5 126 -3 0 -5 -49 -5 -110z"/>
<path d="M1384 1115 c0 -99 2 -138 3 -87 2 51 2 132 0 180 -1 48 -3 6 -3 -93z"/>
<path d="M1977 790 c4 -50 0 -77 -16 -120 -40 -107 -56 -119 -459 -350 -79
-45 -162 -88 -184 -96 -51 -18 -131 -17 -183 1 -52 19 -57 12 -5 -9 25 -10 69
-16 115 -16 66 0 81 4 147 38 129 68 462 263 497 291 56 44 93 122 98 205 3
39 0 82 -5 96 -7 19 -9 9 -5 -40z"/>
<path d="M284 371 c16 -25 91 -31 391 -29 l310 2 -330 6 c-251 4 -336 8 -354
18 -13 8 -20 9 -17 3z"/>
</g>
</svg>
